<?xml version="1.0" encoding="UTF-8"?> <svg xmlns="http://www.w3.org/2000/svg" style="fill:#fff" viewBox="0 0 148 45" height="45" width="148"><path d="m35.407 19.267-9.89 1.775-.742-14.497 11.335-.776a.833.833 0 0 0 .776-.83V2.386a.83.83 0 0 0-.26-.604.833.833 0 0 0-.618-.227l-15.093.832a.832.832 0 0 0-.785.877l2.22 40.505a.833.833 0 0 0 .831.787h2.386a.83.83 0 0 0 .831-.868l-.801-18.417 10.104-1.814a.83.83 0 0 0 .685-.819v-2.552a.83.83 0 0 0-.979-.819zM47.238 1.912a.833.833 0 0 0-.809-.636h-1.775a.833.833 0 0 0-.82.689L36.565 43.58a.835.835 0 0 0 .183.679.83.83 0 0 0 .637.297h2.497a.832.832 0 0 0 .817-.674l3.199-15.629h4.997l4.276 15.703a.83.83 0 0 0 .805.621h2.497a.833.833 0 0 0 .654-.318.83.83 0 0 0 .154-.711L47.238 1.912zM44.411 24.79l1.417-15.942 2.18 15.942h-3.597zm30.917 3.445a.834.834 0 0 0-.747-.118l-2.552.833a.833.833 0 0 0-.483 1.171c.122.922-.022 5.601-.151 6.183-.656 2.534-1.946 4.002-3.834 4.363a4.2 4.2 0 0 1-.779.074c-2.183 0-4.045-1.815-4.151-4.046l-.317-4.098-.322-4.259-.306-3.645-.32-4.422c-.005-.8-.163-1.949-.345-3.279-.497-3.622-1.248-9.095.681-11.533.594-.75 1.41-1.165 2.497-1.269 1.366-.131 2.414.276 3.208 1.25 2.108 2.583 1.719 8.242 1.591 9.008a.832.832 0 0 0 .792 1.089h3.107a.83.83 0 0 0 .83-.878l-.277-5.032c-.061-1.781-.72-3.382-1.349-4.697-.619-1.374-1.534-2.542-2.646-3.376C68.323.704 67.199 0 64.906 0c-2.02 0-3.805.537-5.16 1.554-1.088.816-1.935 1.92-2.582 3.359-.656 1.372-1.019 2.957-1.08 4.714a.69.69 0 0 0 .002.091l1.941 25.673c.062 1.785.425 3.384 1.071 4.735.63 1.4 1.477 2.487 2.569 3.305 1.302 1.042 3.045 1.57 5.181 1.57 2.099 0 3.824-.528 5.105-1.553a8.386 8.386 0 0 0 2.637-3.304c.657-1.374 1.021-2.979 1.08-4.798V28.91a.83.83 0 0 0-.342-.675zm-3.174 2.328a.8.8 0 0 1-.126-.031.83.83 0 0 0 .126.031zm-2.828-16.55a.81.81 0 0 1 .335-.131.82.82 0 0 0-.335.131zM93.425 2.105 76.113.987a.84.84 0 0 0-.623.223.83.83 0 0 0-.263.607v2.58c0 .435.335.797.769.83l6.555.504v37.993c0 .459.373.832.832.832h2.663a.83.83 0 0 0 .832-.832V5.858l6.43.487a.823.823 0 0 0 .629-.22.83.83 0 0 0 .266-.61v-2.58a.83.83 0 0 0-.778-.83zm12.784 34.455c0-1.551-.45-3.15-1.417-5.031-.892-1.742-2.084-3.544-3.23-5.241l-.72-1.05-.024-.036-2.063-3.175c-.661-1.159-1.419-2.69-1.419-4.265 0-2.906.909-4.414 2.701-4.48l.064-.001c.677 0 1.915.298 2.613 2.297.101.304.26.619.414.922.268.531.542 1.071.567 1.591a.141.141 0 0 0 .05.101.138.138 0 0 0 .092.034l2.785-.26a.141.141 0 0 0 .129-.15c-.083-1.477-.931-3.2-1.718-4.701-.459-.852-1.102-1.502-1.907-1.925s-1.796-.636-2.956-.636h-.163c-1.858.038-3.34.798-4.394 2.259-.857 1.237-1.334 2.998-1.334 4.948 0 .866.129 1.716.385 2.529.49 1.729 1.298 3.466 2.409 5.181l3.225 4.79.746 1.158.118.188.495.785.034.056c1.009 1.828 1.458 3.169 1.458 4.347 0 4.232-1.939 4.863-3.096 4.863-1.449 0-2.444-.875-2.955-2.601-.382-1.111-.998-3.24-1.033-4.255-.002-.039-.019-.076-.049-.102s-.059-.034-.096-.034l-2.785.262a.142.142 0 0 0-.129.146c.054 1.923.891 5.168 1.722 6.678.974 1.771 2.715 2.631 5.325 2.631 2.215 0 3.847-.751 4.85-2.232.867-1.278 1.306-3.161 1.306-5.591zm8.737-25.195a.14.14 0 0 0-.103-.044h-2.869a.142.142 0 0 0-.142.139l-.857 32.781a.145.145 0 0 0 .143.146h2.868a.143.143 0 0 0 .144-.139l.856-32.78a.14.14 0 0 0-.04-.103zm32.711 1.767v-2.949a.137.137 0 0 0-.047-.104.14.14 0 0 0-.094-.036l-12.371 1.119a.139.139 0 0 0-.129.139v32.107c0 .072.058.133.131.139l10.369.839a.141.141 0 0 0 .143-.139v-2.95a.141.141 0 0 0-.126-.139l-7.36-.825V28.914l7.491-.549a.141.141 0 0 0 .13-.14v-3.279a.14.14 0 0 0-.044-.103.14.14 0 0 0-.096-.037l-7.482.548v-10.98l9.358-1.103a.14.14 0 0 0 .127-.139zm-29.334-1.126 13.734-.628a.68.68 0 0 1 .491.178.62.62 0 0 1 .201.464l-.032 1.961a.644.644 0 0 1-.619.621l-5.202.299-.464 28.878a.647.647 0 0 1-.67.622l-2.111-.034a.648.648 0 0 1-.65-.643l.464-28.781-5.102.288c-.184.012-.363-.053-.495-.175s-.206-.291-.204-.468l.032-1.961a.645.645 0 0 1 .627-.621zM18.614 36.384l-.185-1.416c-.031-.243-.225-.421-.431-.394l-3.165.412-.352-6.122 2.655-.346c.207-.027.349-.246.316-.491l-.185-1.416c-.032-.244-.225-.421-.431-.394l-2.489.324-.334-5.8c-.017-.289-.229-.51-.476-.496l-1.426.082c-.245.014-.432.258-.415.547l.343 5.968-6.08.792-.363-6.307c-.016-.289-.229-.51-.476-.496l-1.426.082c-.245.014-.433.259-.415.547l.373 6.474-3.331.434c-.207.027-.348.246-.316.491l.185 1.417c.031.243.225.421.431.394l3.165-.412.352 6.122-2.654.346c-.207.027-.348.246-.316.491l.185 1.417c.032.243.225.421.432.394l2.488-.324.334 5.801c.017.289.229.51.476.496l1.426-.082c.245-.014.433-.259.415-.547l-.343-5.968 6.08-.792.363 6.307c.017.289.229.51.476.496l1.426-.083c.244-.014.433-.259.415-.547l-.373-6.474 3.331-.434c.205-.028.347-.248.315-.493zm-12.169-.305-.352-6.122 6.08-.792.352 6.122-6.08.792zm-4.51-25.276 3.961-.436c.052-.006.105.007.146.035s.066.069.068.113l.037.495c.006.083-.066.157-.165.169l-1.498.181.535 7.285c.006.088-.074.165-.179.17l-.612.034c-.105.006-.196-.061-.203-.149l-.534-7.26-1.47.175c-.053.007-.106-.006-.148-.034s-.067-.069-.07-.113l-.036-.495c-.005-.084.068-.158.168-.17zm9.428-.555-.645.013c-.111.002-.2.083-.197.18l.085 3.158-2.394.385-.092-3.399c-.002-.097-.094-.173-.206-.17l-.645.012c-.111.002-.2.083-.197.18l.208 7.746c.002.097.095.174.206.171l.645-.013c.111-.002.199-.082.197-.18l-.092-3.424 2.394-.385.099 3.665c.003.097.094.173.206.171l.644-.013c.111-.002.2-.082.197-.18l-.208-7.746c-.001-.098-.093-.174-.205-.171zm4.766-.311-.07-.758c-.001-.01-.007-.02-.016-.026s-.018-.008-.028-.007l-3.555.537c-.021.003-.036.02-.034.038l.76 8.259c.001.018.02.033.041.033l3.021.006c.011-.001.02-.005.027-.011s.012-.017.011-.027l-.07-.759c-.002-.018-.018-.032-.039-.033l-2.151-.064-.27-2.938 2.155-.292c.022-.003.037-.02.035-.039l-.077-.843c-.001-.01-.007-.019-.016-.025s-.018-.008-.028-.008l-2.153.292-.26-2.824 2.683-.473c.021-.004.035-.02.034-.038z"></path></svg> 